/* XPM */
static char *_20d9a71eea247edb04ceeb28854e850YOY4kZdVscVatGnl[] = {
/* columns rows colors chars-per-pixel */
"64 64 244 2 ",
"   c None",
".  c #181719",
"X  c #1A191B",
"o  c #171619",
"O  c #221F1C",
"+  c #26271D",
"@  c #372D1E",
"#  c #34371E",
"$  c #1F1E20",
"%  c #262527",
"&  c #393825",
"*  c #282B33",
"=  c #343334",
"-  c #3A3A38",
";  c #30332B",
":  c #201F20",
">  c #47381D",
",  c #4A281E",
"<  c #482C21",
"1  c #4B3626",
"2  c #533223",
"3  c #5A3624",
"4  c #5D3A26",
"5  c #563A27",
"6  c #493D38",
"7  c #533D34",
"8  c #502F21",
"9  c #623B26",
"0  c #653E29",
"q  c #713D36",
"w  c #3C5017",
"e  c #3E6411",
"r  c #3C4532",
"t  c #3A4E24",
"y  c #45471C",
"u  c #455413",
"i  c #456B0C",
"p  c #45680C",
"a  c #466715",
"s  c #4B7518",
"d  c #517412",
"f  c #4A4523",
"g  c #564724",
"h  c #485824",
"j  c #585526",
"k  c #4C423C",
"l  c #434A38",
"z  c #52423B",
"x  c #58453A",
"c  c #475637",
"v  c #5B5138",
"b  c #6B422B",
"n  c #66452A",
"m  c #73462D",
"M  c #665928",
"N  c #664635",
"B  c #774C36",
"V  c #7A5637",
"C  c #745B2F",
"Z  c #4A6627",
"A  c #567924",
"S  c #4D623C",
"D  c #51643E",
"F  c #587638",
"G  c #507023",
"H  c #68662A",
"J  c #66772B",
"K  c #7C6838",
"L  c #6A6D31",
"P  c #263649",
"I  c #2C3B4C",
"U  c #293645",
"Y  c #373E47",
"T  c #2B3C51",
"R  c #413D45",
"E  c #3C434B",
"W  c #35404E",
"Q  c #37465A",
"!  c #2F4259",
"~  c #354961",
"^  c #394D64",
"/  c #3A526C",
"(  c #3D5673",
")  c #454545",
"_  c #4C4A45",
"`  c #4D4C4B",
"'  c #474747",
"]  c #534943",
"[  c #534B48",
"{  c #4E5447",
"}  c #51524D",
"|  c #58554A",
" . c #444C56",
".. c #4C5259",
"X. c #545453",
"o. c #5B5A56",
"O. c #5D5D5C",
"+. c #555759",
"@. c #504E51",
"#. c #69594B",
"$. c #775646",
"%. c #655B57",
"&. c #705249",
"*. c #566B44",
"=. c #5B7644",
"-. c #5D6056",
";. c #61605F",
":. c #686658",
">. c #687958",
",. c #6D6C4D",
"<. c #485666",
"1. c #565D65",
"2. c #455C76",
"3. c #5A6269",
"4. c #48617C",
"5. c #576779",
"6. c #656463",
"7. c #6D6C6B",
"8. c #696865",
"9. c #726E6D",
"0. c #766A64",
"q. c #71706E",
"w. c #7A746C",
"e. c #626B76",
"r. c #6C7177",
"t. c #747473",
"y. c #7A7976",
"u. c #7D7C7B",
"i. c #777777",
"p. c #6D7763",
"a. c #993527",
"s. c #8C5C3D",
"d. c #845639",
"f. c #8A5239",
"g. c #95643E",
"h. c #867638",
"j. c #AA4038",
"k. c #8A5D42",
"l. c #925C41",
"z. c #8A4942",
"x. c #956241",
"c. c #9B6543",
"v. c #9E6A45",
"b. c #8D6955",
"n. c #A46C45",
"m. c #A46E49",
"M. c #A56B44",
"N. c #AB7248",
"B. c #B66046",
"V. c #867C77",
"C. c #90786B",
"Z. c #B94C45",
"A. c #5C8C1C",
"S. c #598817",
"D. c #5E911D",
"F. c #5F9316",
"G. c #5B8A0F",
"H. c #649A0F",
"J. c #63980E",
"K. c #619513",
"L. c #659A12",
"P. c #61941B",
"I. c #65991A",
"U. c #60891B",
"Y. c #5B8524",
"T. c #5A8825",
"R. c #5F9121",
"E. c #5D8538",
"W. c #669425",
"Q. c #669339",
"!. c #628730",
"~. c #5F8141",
"^. c #67894B",
"/. c #728F51",
"(. c #7D9864",
"). c #79886B",
"_. c #77A055",
"`. c #898337",
"'. c #81AE5C",
"]. c #83996B",
"[. c #82807E",
"{. c #8A837A",
"}. c #9A867A",
"|. c #8B9879",
" X c #AD8372",
".X c #8AA175",
"XX c #8AA66E",
"oX c #82975E",
"OX c #96CA6B",
"+X c #496685",
"@X c #546C87",
"#X c #5B748D",
"$X c #577598",
"%X c #4F6F92",
"&X c #67788A",
"*X c #797E84",
"=X c #637B95",
"-X c #5F7FA1",
";X c #7D8288",
":X c #798696",
">X c #6D859B",
",X c #758CA6",
"<X c #858482",
"1X c #8A8986",
"2X c #8D8C8B",
"3X c #878785",
"4X c #998C85",
"5X c #93938C",
"6X c #959A8A",
"7X c #848C93",
"8X c #949492",
"9X c #999996",
"0X c #9C9B9A",
"qX c #989895",
"wX c #8F938E",
"eX c #A4958D",
"rX c #A69C95",
"tX c #A58986",
"yX c #9BA590",
"uX c #A2A19E",
"iX c #A8A69A",
"pX c #B4A69D",
"aX c #8D9BA7",
"sX c #96A3B0",
"dX c #A5A4A3",
"fX c #AAAAA6",
"gX c #ACABAA",
"hX c #A8A7A6",
"jX c #B4ADA8",
"kX c #B4B1AC",
"lX c #B5B4B4",
"zX c #BBB9B6",
"xX c #BDBCBA",
"cX c #B9B7B5",
"vX c #A9AFA9",
"bX c #C0BFBD",
"nX c #C2B9B4",
"mX c #C0B4AE",
"MX c #C2C1BF",
"NX c #C5C4C2",
"BX c #CDCCCA",
"VX c #C9C8C6",
"CX c #D0CFCD",
"ZX c #D4D3D2",
/* pixels */
"                                                                                                                                ",
"                                                                                                                                ",
"                                I @X                                                                                            ",
"                            * X / #X                                                                                            ",
"                          <. .* +X+X@X                                                                                          ",
"                          +X&X~ +X2.$X                                                                                          ",
"                          +XaX$X+X( $X2.                                                                                        ",
"                          3.aX>X+X( #X$X                                          <.                                            ",
"                          t.uX#X+X( @X@X<.                                      Q &X  3 a.                                      ",
"                          q.dX&X<.@.5.:X6.                                      ( >X .<                                         ",
"                          7.uXwX;X8X3XuXr.*                                     2.>Xr.=                                         ",
"                          6.wXq.i.<Xu.dX5.3.$                                   8.2X*XT                                         ",
"                        = 7.0Xy.u.6.i.xX&X&X*                                   6.8X1.^ T                                       ",
"                        = t.hXy.3X8.q.lXu.i.Y .                                 ;.2X<.^ +X                                      ",
"                        * 7.1Xq.u.;.' 3Xu...<.* X   X = 6 7 q #.                +.1.I / $XT                                     ",
"                          X.+.6.u.O.6.hX*XP I T U : ; 1XZ.B.4X9X[.              @.I P / $X%X*        .                          ",
"                          * ) 6.y.+.O.2X<.P P P T T Q 3XtXrX0X8X9X= o         %  .I P / $X%X^     ^ @X                          ",
"                          . - ;.3.3.q.3.U U P P P P I <.:XdXrXdXuXr # # # + X X X. .T / -XaXY     4.#XW                         ",
"                          X - 6. .&X..I T T P P P P P T +X:Xu.8XyXE.D.T.T.Y.t $ @.X.t.e.r.xXY   U +X+X2.                        ",
"                          X = 6. .r.Q U Q ~ ! T P P P ! %X%X<.uXaXQ.I.W.W.D.Y.+ ; @.t.7.t.cX6   / @X2.$X*                       ",
"                          X - 6.[ 1.I I @. .Q ~ ! T P ~ %X%X#XaX>X(..XwX{.W.Y.; : ' t.9.q.gX' U +X+X2.$X<.                      ",
"                          X - 7.@.6.` Y E ` .... .T P ( %X2.=X$X5.:X6.;XiX/.j r O.#.i.7.6.dX*X&X+X4.2.$X$XE                     ",
"                          X - 7.X.8.7 &._ E ) ` ..T P @X$X#X:X$X1.V.N z. X`.J 6.q.&.w.6.6.dX9X7X+X4.( %X@X .                    ",
"                          X - 6.&.l.f.N z _ ` E E P P =X-X&X:X,Xq.<XN j. Xw./.>.2X4X<X3Xu.gXhX0X&X3...e.7X;.            <.      ",
"                ) - +.` * O - 6.z.a.R R 7 7 R [ ' Y U r.,X,X8XeXi.<XX.;.eXk.%.%.q.1X0X2X).gXBXhX*X8X0X3XdXo..         U #X= X   ",
"              8X<Xu.8X8X).w t O.7.+X+X<.6 7 x 7 ] ] 6 r.0XpX}.C.r.#X@X1.2X%.&.%.7.<X0Xu.1.hXZX5X6.i.u.y.dX) .         Q >X1.X   ",
"            ) qXuX0XuX8X6XF { ..2.%X/ T  .R 7 7 z z R y.}.tXV.5.%X%X+X@XwXX.[ X.7.1XdXy.O.0XNX6X>.[.;.*XMX' o       % 2.=X:X$   ",
"            - 3XwX6X6XuXfXyX3XI +X2.@X .3. .] 7 7 7 R V.tXC.[ ^ +X+X2.>X&X` ` X.i.3X0Xi.;.dXCX9X>.0X3XwXMX' o o $ X % 1.u.8X$   ",
"          r S *.=.=.^.]..X{.E P 2.@X;XO.1.2.@.[ z x 7 9.C.&.U / +X&X;X3X$X5.' X.u.1X0X<XO.e.&X:Xi.{.qXhXxX` : @.@.` i.7.1Xi..   ",
"        c l { r S S =.^.'.>.1.<.@X$X*X@X&XV.&.R ] z x 0.t.W U / $X;X>X,XsX*X` o.O.7.dX{.` T I ^ 2.e.u.xXcX) ` dX3X2X8X9.1X7..   ",
"      *.=.*.l c *.^./._.OXXXvX8X*X,XsX2XV.V.7.<X9.w.o.3Xr.I P / $X,XsXlXpX2X1.o.X.- 2Xt.Y ^ T T ^ 4.*XrX4Xo.6.0XdX0X0X6.u.6..   ",
"    l S ~.^.r c =.^.*.=.^._.].0XgXgXdX<XuX1X<X8X8X1XV.eXC.) Y 2.sXlXeXnXrX1X1.%.X.- i.Q Y ..T Q ~ ( :X4X0.0.6.wX8XgX2X6.u.7..   ",
"    - c ^.*.& l =.D r D _.OXXX8XjX}.jXuXdX9X9X9XqXqX8XgXV._ ` u.4XjXeXbXhX2X;.;.@.6 q. .Y E Y <.^ @X3X&X&.$.x %.t.*X8.7.2Xt.o   ",
"  t h l =.l r S ^.S r D '.OX].9XeXhXrXt.0XgX0XdX9XgXdXiXV._ [ {.rXkXrX*X5.*Xu.u.%.7 0.@.' ) Y E Q #X7X=X+.| ] 6.u.q.o.7.2Xt..   ",
"  t Y.G G t r S /.c c D _./.| ).V.4XC.O.r.2X0X2X[.gXBXcXV.) [ <XiXpX0.T T ~ @X7X{.q 3 R [ [ ` Y ^ ,XhXhXX.` ) t.1Xi.O.;.t.O..   ",
"  + y R.L.S.h g M | _ { X.' - 8.X.6.0.6.q.V.0Xu.O.hXZXgXt.[ _ u.}.8X .~ T T ! @X*X#.7 6 ] [ _ [ t.lXrX8X[ %.C.zX0X6.O.O.} & X   ",
"    1 Y.H.P.d g $.>.*.o.@.) ' t.o.o.@.X.r.3XuXy.O.uXMX0Xi.t.6.<X8X<.Y <.T ~ ~ 2.e.7.6.o.| ] _ [ t.rXeXC.tXpXBXCX0X8.;.3X(.G :   ",
"      A.H.G.d y K J Y.E.*.) ' i.@.@.[ X.t.2X0Xt.;.hXZXgX8XuX1X2X2X .) E Y +.^ 4.;X&Xi.7.[ z 7 x 6.C.eXmXCXVXNXVXuX9.1.gX].A +   ",
"    w G.i i p w n C p p s =._ 8.X.X.' X.V.1X0X[.;.dXCXdX3Xi.8XuX[.@.` 1.1.;.7X:X7X,X8X8X8.3 b &.}.mXNXBXBXxXNXbX0X6.o.hX.XT.#   ",
"      s p p p w > M H j d T.F >.>.{ ) o.;.t.dX[.X.8X2X4XC.` 7.hX6.' 0.dX3X2X9X9XsXlX9X9X3XC.}.nXBXVXNXNXbXnXcXxX5X6.o.5X(.J f X ",
"      a p p e y 5 g M M H d F.A.Y.Z c +.@.r wXt.+.u.+.6.0.` 9.0X6.] 0.uXuX0X0X8XdXiX8X4XeXnXVXVXBXNXbXMXbXzXzXyX^.E.=.^.T.J B X ",
"      t A i i i a a p p p p d d e e h o.@.- V.o.& | _ | ) 6 | C.0.6.o.8X8XgXqXgXrX}.eXjXBXCXMXMXNXxXzXxXzXiXXXQ.P.D.R.D.R.h.7 X ",
"        f h G p i i i i p i d p Z D -.;.[ R q.#.& v #.#.#.[ k 1 d.b.[ 6.t.[.t.dXrXmXCXVXNXVXxXxXbXxXvXiXXXQ.D.F.J.J.F.U.K N.n X ",
"        @ 0 2 > a d i i d G.I.oX;X;X).y.%.N y.:.g z # 6 :.k = ; $.m 6 8.*X7.8.xXbXCXCXnXNXbXxXzXlXvXXX^.R.L.H.J.L.F.A K n.n.N X ",
"          5 0 2 < g Z S.W.(.6X0X0X0X9X0X8X1X1X<Xb.6 X - +.R * Y 7 9 7 8.1Xq.7.MXnXNXMXxXzXbXlXyX(.Q.R.D.D.L.L.F.T.J x.v.c.v.1 X ",
"          g 5 2 < 5 z ).5X9X9X0X0X8X9X8X0X9X2X6.V.V.] [ R * % = 7 z.b.kXxX8.7.MXzXMXxXlXvXiXXXQ.D.D.H.H.D.D.T.J C v.v.c.c.N %   ",
"          @ j g 7 C.4X9X0X0X9XqX8X0X0X0X0XuX5XO.X.6.i.C.b.B 7 #.}.pXVXCXxX7.9.cXlXzXxXdX).(.T.K.H.D.L.L.T.H L c.c.x.V x.s.      ",
"            & L wX0X9XqX0X0X0X8XqX0X0XyXyX(.=.} X.@.@.6.V.C. XpXCXVXVXBXcXq.6.gXrXdX(.>.).6X).K.F.D.F.D.L f.l.N.x.N.x.m.B       ",
"              >.0X9X9X9X9X9X9X9X0XuXyX(.Q.R.Y.{  .` } X.X.6.gXCXBXMXMXMXcX6.%.hX|.F *.{ O.3Xt.W.H.L.R.K s.M.c.k.s.N.v.N         ",
"              *.1X9X9X9X0X9X9XuXyXXXR.R.F.d i { ' ' ` } } X.dXNXMXzXMXMXkX6.6.qX/.Z { p.*.8.t.].I.F.!.K k.N.c.k.s.N             ",
"              Z ^.).1X6X3X{.6X(.F s G.i e e e e t _ @.` ` } 0XMXMXkXzXvX.X=.=.Q.R.D.T.E.E.~.*./.R.Y.C B l.c.N.x.s.              ",
"                j F E.^.E.^.E.F n y a s e e i e e c X.X._ @.5XxXMXkX.X^.T.T.F.K.L.L.P.K.L.K.D.T.J K m.m.v.n.m.n.s.              ",
"                  n M g j C V s.m 9 > a A S.s a s a Z S c _ wXvXXX^.I.L.K.J.J.L.R.L.D.K.H.K.A.L s.B v.N.x.c.V c.V               ",
"                    4 4 m s.f.V 9 0 3 2 f G T.U.T.T.S.a w Z ^.^.R.H.H.H.P.K.J.J.K.L.R.P.P.Y.M d.v.k.N.N.s.m.k.V                 ",
"                      9 b s.s.B d.9 3 0 4 , y y f h t # a S.T.A.K.L.L.D.S.U.J.F.I.D.G j H C x.x.v.n.m.l.c.m.s.                  ",
"                      g 9 9 g.f.B s.n 4 2 4 2 b 4 2 > , @ t Y.D.K.U.G h A I.L.P.G y 1 B k.V N.k.x.k.g.B x.s.                    ",
"                        g n 0 g.d.g.f.V 4 , , 0 9 3 3 9 8 @ y y Z j 5 9 > u G j > 3 2 B k.d.n.c.m.s.N.x.m.                      ",
"                          H g C V M s.d.C > > n 9 3 9 3 9 8 3 3 4 8 8 3 2 2 0 0 m b 0 k.n.c.x.m.x.x.x.k.                        ",
"                              j L K `.h.h.H j M g 2 2 b 9 3 9 2 3 3 9 4 9 9 9 9 9 m m N.x.m.l.l.B c.d.                          ",
"                                  f j j H f & f M j g g 2 > 9 9 0 b 0 b 9 9 b 0 B n 4 d.c.N.M.m.x.m.                            ",
"                                                j j H H j y g 3 > 2 , b 0 0 2 9 m m 0 B k.v.x.s.x.N                             ",
"                                                      & M M H j j j g g 5 g 3 b m B B f.c.v.1                                   ",
"                                                          # # + > j M H > H n n 0 0 5 N V 1                                     ",
"                                                            X X O + @ + + + + + 2 % X % : o                                     "
};
