/* XPM */
static char *_b6eba232d534c8aece4d818451097276JfcbCX1sXvC97b5[] = {
/* columns rows colors chars-per-pixel */
"64 64 219 2 ",
"   c None",
".  c #0C0D0D",
"X  c #070809",
"o  c #1E1006",
"O  c #161615",
"+  c #1C0E05",
"@  c #281E17",
"#  c #23150B",
"$  c #2C211B",
"%  c #12162C",
"&  c #14192E",
"*  c #1B182D",
"=  c #151A31",
"-  c #191D34",
";  c #1A1F38",
":  c #271A2B",
">  c #361E26",
",  c #3A1F26",
"<  c #381A29",
"1  c #1C233A",
"2  c #1A2037",
"3  c #18212D",
"4  c #3C2027",
"5  c #3A2727",
"6  c #21263D",
"7  c #2D2E30",
"8  c #3C2836",
"9  c #2C3333",
"0  c #323A3B",
"q  c #353537",
"w  c #3D312A",
"e  c #491A19",
"r  c #4C1C26",
"t  c #441B27",
"y  c #581D25",
"u  c #761F22",
"i  c #661E24",
"p  c #442329",
"a  c #482529",
"s  c #5C2C2D",
"d  c #582527",
"f  c #4A2D38",
"g  c #572D35",
"h  c #4A3333",
"j  c #632E2E",
"k  c #6A292A",
"l  c #7B2427",
"z  c #67302E",
"x  c #7A332F",
"c  c #682C36",
"v  c #762B35",
"b  c #6D3432",
"n  c #643639",
"m  c #733331",
"M  c #7B3632",
"N  c #7D3833",
"B  c #783C3B",
"V  c #462E0E",
"C  c #6D521B",
"Z  c #4A403A",
"A  c #73603E",
"S  c #7A432F",
"D  c #252C44",
"F  c #242A47",
"G  c #2B344C",
"H  c #293249",
"J  c #373648",
"K  c #383956",
"L  c #2C3354",
"P  c #343C61",
"I  c #443244",
"U  c #573B46",
"Y  c #543B57",
"T  c #43364E",
"R  c #653A4A",
"E  c #7B3B47",
"W  c #6E3F50",
"Q  c #364042",
"!  c #3E4C4E",
"~  c #394549",
"^  c #3B4654",
"/  c #3C436B",
"(  c #3E4974",
")  c #5D474D",
"_  c #5A474A",
"`  c #474956",
"'  c #495B5D",
"]  c #465558",
"[  c #575859",
"{  c #4F434E",
"}  c #694B4E",
"|  c #694643",
" . c #774545",
".. c #624654",
"X. c #665257",
"o. c #735449",
"O. c #42466E",
"+. c #484666",
"@. c #4C5E62",
"#. c #49536B",
"$. c #434B75",
"%. c #474F78",
"&. c #4A537C",
"*. c #495177",
"=. c #535779",
"-. c #72546B",
";. c #70576F",
":. c #5A6769",
">. c #5A6579",
",. c #6A6A69",
"<. c #687679",
"1. c #75797A",
"2. c #861D1D",
"3. c #891F1D",
"4. c #8A201F",
"5. c #862222",
"6. c #882121",
"7. c #842827",
"8. c #84292E",
"9. c #80312D",
"0. c #822D34",
"q. c #803832",
"w. c #833637",
"e. c #953939",
"r. c #953C3C",
"t. c #AC2C2C",
"y. c #A52E2E",
"u. c #B12C2C",
"i. c #AF3534",
"p. c #BA3332",
"a. c #A2302F",
"s. c #CC3637",
"d. c #DB3B3B",
"f. c #D13939",
"g. c #E03C3C",
"h. c #895E30",
"j. c #B8413C",
"k. c #906C29",
"l. c #B77638",
"z. c #C0413D",
"x. c #884844",
"c. c #9D4949",
"v. c #8D5852",
"b. c #A85D5D",
"n. c #A75757",
"m. c #B04D4C",
"M. c #99625E",
"N. c #9D7553",
"B. c #91706C",
"V. c #A87473",
"C. c #B57676",
"Z. c #A47568",
"A. c #A6734D",
"S. c #D14C4A",
"D. c #E3534E",
"F. c #C56564",
"G. c #D57373",
"H. c #DF6E65",
"J. c #BD8A2C",
"K. c #C69336",
"L. c #D69B3C",
"P. c #DAA23D",
"I. c #E5AC3B",
"U. c #F1B63F",
"Y. c #EEB33E",
"T. c #B38D4F",
"R. c #AB836D",
"E. c #D39F43",
"W. c #DCA341",
"Q. c #CFA251",
"!. c #F3BE55",
"~. c #E7B24B",
"^. c #E0987A",
"/. c #DCA37C",
"(. c #E3BD75",
"). c #F3C05B",
"_. c #F3C56B",
"`. c #4C5781",
"'. c #535B84",
"]. c #565F89",
"[. c #6E5F80",
"{. c #5A628C",
"}. c #5B6386",
"|. c #5F6892",
" X c #6A668A",
".X c #646B95",
"XX c #696A91",
"oX c #676E99",
"OX c #686F99",
"+X c #606791",
"@X c #6D7396",
"#X c #6A719B",
"$X c #67709A",
"%X c #717A9A",
"&X c #717F81",
"*X c #767CA3",
"=X c #897A80",
"-X c #7A819F",
";X c #8A898B",
":X c #9D9EB4",
">X c #888FAD",
",X c #AB97A2",
"<X c #9AA4A5",
"1X c #9BA0BA",
"2X c #BCB0B4",
"3X c #B59891",
"4X c #D49393",
"5X c #C38C8D",
"6X c #D5AC8E",
"7X c #F1B593",
"8X c #D2B4B9",
"9X c #E6B9A6",
"0X c #EA8383",
"qX c #F6CF83",
"wX c #FFC6A4",
"eX c #D1BFC6",
"rX c #D3C8D0",
"tX c #DEDCE3",
"yX c #F2D8D7",
/* pixels */
"                                                                                                                                ",
"                                                                                                                                ",
"                                                                                                                                ",
"                                                                                                                                ",
"                                                                                                                                ",
"                                                        _.).E.A     qXqX                                                        ",
"                                                ).6XR.~.U.U.U.I.k.P.I._.      ).!.                                              ",
"                                                ~.Y.K.K.P.W.P.W.P.K.C ,.    ).K.K.                                              ",
"                                                  C k.6X7X4X3X7X7X,.& [     T.V                                                 ",
"                                                7 $ Z.7XwX9X9XwXwX6X8X      q o                                                 ",
"                                              ,.. h 7XwXwX6XR.R.R.N.        w o                                                 ",
"                                              q . O o.Z A w . . . .       $ o #                                                 ",
"                                            Q . . + w w O X . . . . * 1.  $ o                                                   ",
"                                            Z . 5 v.F./.N.a . . . . e V.  @ #                                                   ",
"                                            S.a.z.g.z.D.D.m.5.8.8.5.y.S.F.e d x.                                                ",
"                                          D.g.g.g.d.f.f.f.p.t.t.u.i.t.p.s.i.9.q.m v.                                            ",
"                                      H.g.d.d.d.f.i.t.t.t.t.t.t.t.t.t.u.y.q.M n B e.m.G.                                        ",
"                                  0XS.f.s.u.u.u.t.i.F.F.F.F.F.F.F.F.F.n.q.M a =X2XeXyXG.G.                                      ",
"                                  H.p.t.j.4X4X4X4X4X:X:X:X:X:X:X:X:X,XV.M M a +.]..X:X:X:XrX                                    ",
"                                  rX8X8X8XtX>X%X%X@X{.{.].{.{.{.{...m x M a T '.oX$X|.].].1X                                    ",
"                                  *X'.{.{.]..X.X.X.X#XOX$X$X$XXX;. .q.M s J }.'.`.+XoXoXOX#X>X                                  ",
"                                  %X'..XOXOXOX.X.XoXoXOXoX$X$X XB q.N j f '.OX'.P %.`..XOXoX.X*X                                ",
"                                  %X$.'.OXOXOX{.*.&..X$XoX X-.S N S ) ' ] @.}.`.Y v Y $.'..X$X#X*X                              ",
"                                    @X%.].OXOXOX{.$.'..X#X-.x x s ` ' ' ] ` J U v 3.6.R +.%.{.$X#XoX                            ",
"                                    :X( $.+XoXOX.X{.%.*.X.| R [ ] ] ] ! 0 9 ^ n 4.6.4.4.U O.( &.{.>.<.<X                        ",
"                                    ,XY $.$.+XOXOXoX}.#.' ' ] ` ! 0 9 J ` K Y v 4.6.6.6.5.v Y K 0 ! @.;X                        ",
"                                    5Xv O.$.&.&.`.%.~ Q J Q 0 7 0 #.=.}..X$.v 2.4.6.6.5.5.6.5.k 9 ! ' :.<X                      ",
"                                    5X2.v Y O.( O.O.` 9 7 0 ^ ` }.OX@XoX].$.O.c 4.6.6.6.6.6.6.u 9 0 ~ ' <.                      ",
"                                    c.5.6.5.R R R U g J #.>.oX@X@XXX}.=.R ..R v 4.5.6.6.5.4.4.u q 9 0 ` :.<X                    ",
"                                  n.6.6.6.6.x M c I +.W E A.Q.T.T.Q.A.m N N N 8.4.6.6.6.5.4.4.e.  :.7 Q @.@.                    ",
"                                  b.6.6.6.6.M z g ..;.B x l.P.h.a K.l.m s j j l 4.6.5.6.4.5.5.r.  ,.9 0 ! @.                    ",
"                                  b.6.6.5.9.M q.N N N m m l.P.h.S L.l.s 8 K / c 4.6.6.6.6.6.4.r.  1.0 9 0 ' &X                  ",
"                                  c.6.3.6.M q.m k k k a 8 o.T.T.T.T.o.T =.`.|.E 3.6.6.6.6.6.5.e.      [ 0 ` <.                  ",
"                                e.6.6.6.5.s g I K K K K / P F H F H P $.'..X#X .6.5.6.6.6.6.5.r.                                ",
"                                e.6.6.6.l +.O.$.*.*.( ( L 1 % % & % = - F `.|.XX X;.5.6.6.6.n.                                  ",
"                                e.6.5.5.0.XXoXoX$X.X'.$.$.L & 1 6 6 - % ; P $.].#X[.5.6.6.6.b.                                  ",
"                                e.6.5.6.w.XXOXOXoXoX$X].K ; 2 G G G H 1 % F P {.#XXX;.8.6.6.b.                                  ",
"                                e.6.3.E XXOXoXOXoX.X#.6 - 6 G G G G G D % % P {.#XOXXX0.3.6.b.                                  ",
"                                e.6.3.E OXOXOXOXOX=.- 6 G D 2 6 6 6 F H 1 = P {.#XOXXX0.2.6.b.                                  ",
"                                e.6.3.E OXOXOX#X&.6 H G H 2 : l u : 6 L H ; ; %.#XOXXX0.6.6.b.                                  ",
"                                e.6.2.E .X.XXX=.L 6 G G 1 : y 6.6.< 1 G G G D L =.$XXX0.3.6.b.                                  ",
"                                e.4.c J L L H H H G G 1 * y 4.6.6.< - 6 G G G H H G G l 3.6.b.                                  ",
"                                e.3.g L H H H H G H F = y 6.4.6.5.5.t ; G G G G G H H u 6.6.b.                                  ",
"                                e.6.g G G G G L D ; * r u 6.6.6.5.4.r ; G G G G G L J f l 6.b.                                  ",
"                              r.5.f G G G G G G 1 = * u 6.5.6.6.3.6.r ; G G G G G G G G c 6.b.                                  ",
"                              6.6.I G G G G G 1 % = * u 6.6.6.6.6.4.t = 6 G G G G G G G k 3.b.                                  ",
"                              5.6.f G G G H 1 - % * i 2.6.6.6.6.6.6.y * = 2 H J J J J n l 4.b.                                  ",
"                              6.8.N n J 6 & & % : r 5.6.6.6.6.6.6.6.5.i * : z N N m B M 8.6.b.                                  ",
"                            b.5.q.M q.z : * % = , 6.6.6.6.6.6.6.4.4.u a 4 4 b N N N N N 8.6.b.                                  ",
"                            6.5.M N M M b 4 > > , y 5.6.6.6.6.6.4.4.y , 4 a m N N N M M 5.6.b.                                  ",
"                            6.8.9.N M M M s p 4 , r 2.5.6.6.6.6.4.4.y , a M N N N M M M 7.2.n.                                  ",
"                              8Xx.M q.M M N a > t e u 2.2.2.6.6.5.6.d 4 p b m m m z r r N c.C.                                  ",
"                                 .j m M M j p > | C.C.C.C.m.2.6.4.4.y 4 4 4 4 4 p n B.V.                                        ",
"                                  ..p j b p , 5 ;X                    B.> 4 4 d k M.                                            ",
"                                  B.j a , , 4                           X.4 5 z B M.                                            ",
"                                  Z.N z , , 4                             f s m q.M.                                            ",
"                                  M.n p , , U                             f n M N v.                                            ",
"                                x.q.s > 4 p                                 h j N N x.                                          ",
"                              q.N q.s , 4 f                                 X.s M N N N                                         ",
"                              w.N m a , 4 p                                 _ 4 s N N N                                         ",
"                            q.M s p , , , 5                               f 4 4 p j M N N M.                                    ",
"                            } } ) ) ) ) ) X.                              X.) _ ) ) } } } o.M.                                  ",
"                                                                                                                                ",
"                                                                                                                                "
};
