/* XPM */
static char *_d2106af75d94af8b30404bc3ef77a8cM6l91FHGGT2eYxZM[] = {
/* columns rows colors chars-per-pixel */
"64 64 209 2 ",
"   c None",
".  c #7C6167",
"X  c #AB371E",
"o  c #BC5326",
"O  c #B24B2D",
"+  c #C14C15",
"@  c #CE6F32",
"#  c #8B444F",
"$  c #BC5E42",
"%  c #B5694F",
"&  c #875371",
"*  c #8F7A7F",
"=  c #82686E",
"-  c #C77042",
";  c #D37A71",
":  c #DD8935",
">  c #DA943A",
",  c #E69429",
"<  c #E79E35",
"1  c #E28D34",
"2  c #EDA63C",
"3  c #E9A83A",
"4  c #F1AD39",
"5  c #F2B435",
"6  c #F2B93B",
"7  c #EDB139",
"8  c #F5C138",
"9  c #D68B49",
"0  c #CE8353",
"q  c #D68756",
"w  c #DE9A59",
"e  c #E29B58",
"r  c #E19248",
"t  c #E9AA45",
"y  c #EDB242",
"u  c #EFBD4B",
"i  c #EDB448",
"p  c #F2BD43",
"a  c #F2B440",
"s  c #E9A85A",
"d  c #ECB151",
"f  c #CC8160",
"g  c #D28477",
"h  c #DE9B71",
"j  c #D78766",
"k  c #E39E68",
"l  c #DEB166",
"z  c #DFA87E",
"x  c #DCAA67",
"c  c #E9B76C",
"v  c #E5A979",
"b  c #EBB87A",
"n  c #E4A865",
"m  c #F5C242",
"M  c #F3CA4D",
"N  c #F5C747",
"B  c #EEC559",
"V  c #F1C856",
"C  c #F2D258",
"Z  c #ECC76B",
"A  c #F3D262",
"S  c #F4D66B",
"D  c #F4CF75",
"F  c #F9E164",
"G  c #3B4B9A",
"H  c #3F51A2",
"J  c #7F6B9F",
"K  c #4957A9",
"L  c #5559A9",
"P  c #4E5DBC",
"I  c #626BBC",
"U  c #4D65C1",
"Y  c #5665C4",
"T  c #5966C5",
"R  c #5867C9",
"E  c #546ACB",
"W  c #5969CC",
"Q  c #5070CE",
"!  c #546CD1",
"~  c #596FD8",
"^  c #5B74D5",
"/  c #5474DB",
"(  c #5D79DC",
")  c #5876DB",
"_  c #4A6ED9",
"`  c #6879D8",
"'  c #6875C9",
"]  c #597CE4",
"[  c #647DE2",
"{  c #9E6B90",
"}  c #8173B0",
"|  c #788AB6",
" . c #6980C4",
".. c #6782D9",
"X. c #788CD8",
"o. c #7A90D8",
"O. c #6482E5",
"+. c #6B85E6",
"@. c #6B8AE6",
"#. c #6685EA",
"$. c #6A86E9",
"%. c #668AEB",
"&. c #6C8AEA",
"*. c #748CE7",
"=. c #728DEB",
"-. c #778BE6",
";. c #6E92EC",
":. c #7593ED",
">. c #7A95ED",
",. c #7699EE",
"<. c #7C99EE",
"1. c #7B95E5",
"2. c #769BF0",
"3. c #7D9DF0",
"4. c #7796F0",
"5. c #638BF1",
"6. c #7BA0EF",
"7. c #7DA0F0",
"8. c #A9809A",
"9. c #97A4BE",
"0. c #A9AAB8",
"q. c #D28693",
"w. c #C89990",
"e. c #E09B8D",
"r. c #CEB19A",
"t. c #DDBE9A",
"y. c #D8A69A",
"u. c #E4A986",
"i. c #E6A99B",
"p. c #DCBFAD",
"a. c #D4AAB3",
"s. c #E8B7AA",
"d. c #E8B9B8",
"f. c #DCC089",
"g. c #F1D598",
"h. c #DFC9B8",
"j. c #E6C4BB",
"k. c #EECBAF",
"l. c #F5E4A3",
"z. c #8B9ADE",
"x. c #8596DB",
"c. c #8998CF",
"v. c #9BA6C5",
"b. c #8BA0DE",
"n. c #96A4DF",
"m. c #AEA7C1",
"M. c #AFBEDC",
"N. c #B6B7DB",
"B. c #AFAED1",
"V. c #829AE5",
"C. c #8096EC",
"Z. c #839CEE",
"A. c #8A9FED",
"S. c #8799E4",
"D. c #919DE1",
"F. c #839DF0",
"G. c #889FF0",
"H. c #8BA3E6",
"J. c #84A1ED",
"K. c #8CA3EE",
"L. c #95A1E1",
"P. c #92A5ED",
"I. c #99A6EA",
"U. c #95AAED",
"Y. c #9BACED",
"T. c #9CA8E4",
"R. c #9EB2EE",
"E. c #99B2E6",
"W. c #84A1F0",
"Q. c #8BA3F0",
"!. c #8DA8F1",
"~. c #92A6F0",
"^. c #95ABF0",
"/. c #9CADF1",
"(. c #9DB1F2",
"). c #A2AEEB",
"_. c #A3B3EB",
"`. c #A9B4EC",
"'. c #A6BAEB",
"]. c #ACBBEC",
"[. c #A9B7E6",
"{. c #B2BFEE",
"}. c #B3B9E7",
"|. c #A1AFF1",
" X c #A2B1F3",
".X c #AABBF6",
"XX c #B2BFF2",
"oX c #F1BAC5",
"OX c #B3C4D2",
"+X c #B3C1EC",
"@X c #BAC4ED",
"#X c #B7C9ED",
"$X c #B5C2F4",
"%X c #BAC7F0",
"&X c #D6C1C1",
"*X c #C3D3D6",
"=X c #D4CBD2",
"-X c #F4C9C4",
";X c #F8D4CC",
":X c #F5DDD6",
">X c #E9D7D1",
",X c #FBE6CE",
"<X c #C4CFF1",
"1X c #C1C6EC",
"2X c #D4E1E2",
"3X c #E7E5E7",
"4X c #FFE9E2",
"5X c #F9E7E0",
"6X c #E8F7FC",
/* pixels */
"                                                                                    k.    l.g.t.                                ",
"                                                                            S C C N m C C F V l                                 ",
"                                                                        S 5 6 p 2 2 4 4 i M t M l.                              ",
"                                                                      M 5 y u w j q 0 9 w 3 1 , V                               ",
"                                                                    S 6 y y c -X= = g e.i.f 0 g.                                ",
"                                                                    p i i < v oX&X&Xs.y.{ $ c                                   ",
"                                                                  g.4 M 2 < b d.;X;Xj.j.h.:                                     ",
"                                                                  u u p 2 2 n d.-Xq.q.y.w Z                                     ",
"                                                                C N M m 6 4 e ; s.d.g @ < V                                     ",
"                                                            A N 8 N N N 4 7 v i.$ O + @ 2 m D                                   ",
"                                                        A 8 7 t v e 1 : r v h z D h i.u.s , d                                   ",
"                                                      V B c x h.3X>Xd.s.j.:X5X:X,X,X4X4X>Xr.                                    ",
"                                                      3 t.>X6X2X*X*XOXOXOX9.9.9.v.v.0.0.|  .                                    ",
"                                                      s , 9 =XOXc.' I L G K U Q / ( ( / ( %...[.                                ",
"                                                        > : m..XT.o...' L ^ %.%.%.&.%.5.%.O.] ..                                ",
"                                                      Z 3 q `. Xx.1.} K H K R ^ ( / ) ] / / _ E.                                ",
"                                                        , w..XT.K.{ X # L P P T R E E ! E ! ..                                  ",
"                                                          B.`.I.8.+ o o O & I T T Y U W E Q                                     ",
"                                                          `.L.z.h.b 9 @ @ % } W W ! E E ! o.                                    ",
"                                                          `.x.X.        N.[ ' ` [ ` / / / b.                                    ",
"                                                          [.T.S.n.      `.L.S.I.Y.I.V.+.) ..                                    ",
"                                                            R.T.D.      _._.XX$XXX.XY.b.b.1.                                    ",
"                                                              T.D.}.  }.D.XX$X$X].U.V.:.:.U.'.                                  ",
"                                                                T.n.z.S.I..XXX_.V.,.,.;.:.J.K.                                  ",
"                                                                  x.-./.S.Y.K.1.2.7.,.;.;.J.,.                                  ",
"                                                                  B.!.K.4.%.:.,.2.2.,.,.;.7.7.'.                                ",
"                                                                  ).K.C.;.;.,.4.3.<.,.:.;.7.<.E.                                ",
"                                                                a.K.K.>.,.:.>.>.<.>.,.:.;.7.J.H.                                ",
"                                                                N.W.Z.,.,.:.:.<.<.<.,.=.:.7.F.S.                                ",
"                                                                _.J.,.,.>.:.,.>.<.,.,.&.;.3.F.1.                                ",
"                                                                K.W.;.6.,.=.,.>.>.,.4.;.;.7.3.1.                                ",
"                                                              #XZ.2.;.<.:.:.:.,.,.>.,.%.;.7.3.1.                                ",
"                                                              E.7.,.<.<.;.;.4.,.4.>.,.&.;.7.,.:.                                ",
"                                                              J.2.,.Z.:.;.:.,.4.:.,.:.#.,.7.:.:.                                ",
"                                                            +X6.,.Z.<.,.%.:.,.:.:.>.:.%.:.2.:.:.                                ",
"                                                            K.W.<.W.,.;.:.,.4.4.:.,.:.#.:.3.>.,.                                ",
"                                                            <.Z.F.3.:.;.:.:.4.4.:.4.=.%.,.,.:.>.                                ",
"                                                          _.J.<.W.:.,.:.:.,.>.,.:.<.&.%.,.;.:.,.                                ",
"                                                          A.F.Q.,.:.:.;.4.4.>.>.:.<.%.%.,.;.>.,.].                              ",
"                                                        ].3.Q.W.;.,.:.:.:.:.>.4.,.>.%.;.;.;.>.<.P.                              ",
"                                                        Z.J.A.>.;.>.;.,.=.4.4.4.4.>.$.;.:.&.<.<.V.                              ",
"                                                      '.Z.!.G.=.:.4.:.>.4.>.>.>.>.>.[ 4.&.:.<.<.,.                              ",
"                                                      C.U.A.>.=.3.=.>.>.>.>.>.>.>.>.&.4.$.,.<.<.<.`.                            ",
"                                                    H.Q.P.C.=.:.>.*.>.>.>.>.>.>.4.>.5.=.$.>.>.3.<.A.                            ",
"                                                  }.F.~.F.=.&.F.=.:.>.>.>.>.>.=.>.=.&.=.$.>.<.>.<.<.                            ",
"                                                  >.~.G.>.$.>.4.=.4.>.>.>.>.=.>.>.=.=.$.&.F.<.>.<.<._.                          ",
"                                                D.~.G.>.&.$.F.=.>.>.>.>.>.>.=.=.>.=.&.$.=.3.<.>.<.>.A.                          ",
"                                              T.~.A.C.>.[ >.C.=.<.>.>.>.>.=.=.=.>.:.$.$.:.3.C.>.<.>.<.+X                        ",
"                                            R.K.J.>.4.$.-.F.=.>.C.>.>.>.>.:.=.=.4.=.[ +.:.F.<.>.C.=.J.K.                        ",
"                                          ).K.W.<.:.$.[ C.4.=.F.4.>.4.4.>.:.=.=.>.>.[ +.1.G.C.>.Z.=.Z.Z.1X                      ",
"                                        P.K.W.>.;.$.O.,.C.=.C.<.>.>.>.3.>.=.=.&.>.=.[ $.=.G.Z.:.C.&.>.K.P.                      ",
"                                      P.P.K.<.:.#.O.>.F.=.C.F.>.>.<.>.>.4.:.&.&.>.>.[ &.=.G.!.=.F.=.=.W.K.@X                    ",
"                                  `.A.Q.Z.<.=.#.$.Z.F.>.>.F.>.>.>.4.>.>.4.&.%.&.-.>.[ +.>.C.~.<.F.:.$.>.~.P.                    ",
"                              ].P.Q.Q.3.>.$.#.=.G.F.1.=.F.<.<.<.C.F.F.4.:.=.$.&.=.C.[ O.*.C.~.K.>.1.$.>.Z.K.`.                  ",
"                        @XU.K.~.~.F.4.=.$.=.C.!.F.-.=.A.G.F.C.F.F.F.<.4.=.=.$.$.&.>.+.O.=.>.K.^.C.F.$.=.<.!.K.`.                ",
"                  +XI.A.A.U.~.F.C.=.&.&.-.G.G.C.=.+.~.~.Q.A.G.F.F.F.C.>.:.=.%.&.&.>.:.[ $.1.F.^.~.Z.:.+.:.Z.U.A.J.              ",
"            ].P.C.Z.~.~.~.Z.>.>.=.$.:.A.Q.3.>.+.O.<.^.U.K.P.K.P.G.G.C.C.4.=.$.$.$.:.C.O.+.*.<.P.|.P.Z.+.=.<.G./.A.1.`.          ",
"      _.A.<.<.K.I.U.Q.C.>.=.&.*.<.F.Q.C.>.$.&.-.K./.^.U.^.^.^.U.P.Q.G.C.>.>.&.$.$.=.<.=.[ $.:.Z.~.).A.+.$.=.F.Q./.A.=.F.).      ",
"    _.Z.C.K.K.Z.F.>.:.=.=.>.C.G.G.<.=.-.-.Z.U.^.Y.Y./.Y. XY././.U.Q.A.A.<.>.4.&.&.=.4.3.O.O.*.:.G.Y.|.Z.[ &.=.F.~.(.Q.1.U.P.+X  ",
"      %X{._.U.P.Z.*.=.>.C.F.F.C.<.C.A.P.^.U.^.Y.Y.(. X X X X|.Y.Y.~.K.G.C.4.:.:.=.=.>.C.<.O.+.=.<.G./.|.G.$.1.:.1.J.U.U.+X      ",
"                  U.U.P.>.<.C.K.~.~.Y./.Y.Y.). X X X X X X X/././.P.P.K.G.F.<.>.:.:.1.>.J.<.O.O.$.=.F.Q.(.U.{.                  ",
"                      +XI.).Y.Y.I.U.U.P.P.U./././.|. X X X X X|././.Y.P.~.F.F.3.<.>.>.4.<.!.C.V.).U.P.U.U._.R.                  ",
"                                              <X@X$X.X X XY.I.U.K.P.~.K.K.K.F.F.<.1.:.:.=.>.<.I.                                ",
"                                                                  %X+X`.R.Y.U.K.P.H.P.Y.R.$X                                    "
};
